<?xml version="1.0" encoding="utf-8"?>
<!-- Generator: Adobe Illustrator 22.1.0, SVG Export Plug-In . SVG Version: 6.00 Build 0)  -->
<svg version="1.1" id="Layer_1" xmlns="http://www.w3.org/2000/svg" xmlns:xlink="http://www.w3.org/1999/xlink" x="0px" y="0px"
	 viewBox="0 0 201 254" style="enable-background:new 0 0 201 254;" xml:space="preserve">
<style type="text/css">
	.st0{fill:#666666;}
</style>
<g>
	<path class="st0" d="M5.5,32.2v196.5c0,6.7,5.4,12.1,12.1,12.1h168.2c2.3,0,4.5-1,5.9-2.8c7.9-9.8,1.1-20.7-8.4-20.7H39.2
		c-4.9,0-9.1-3.6-9.6-8.5c-0.5-5.6,3.9-10.3,9.4-10.3h137.6c10.5,0,19-8.5,19-19V32.2c0-10.5-8.5-19-19-19h-66.6v85.3
		c0,1.2-0.5,2.5-1.4,3.4c-1.8,1.8-4.9,1.8-6.7,0c-1.2-1.3-20.3-17.2-20.3-17.2s-19.1,15.9-20.3,17.2c-1.8,1.8-4.9,1.8-6.7,0
		c-0.9-0.9-1.4-2.2-1.4-3.4V13.2H24.5C14,13.2,5.5,21.7,5.5,32.2z"/>
</g>
</svg>
