<?xml version="1.0" encoding="utf-8"?>
<!-- Generator: Adobe Illustrator 22.1.0, SVG Export Plug-In . SVG Version: 6.00 Build 0)  -->
<svg version="1.1" id="Layer_1" xmlns="http://www.w3.org/2000/svg" xmlns:xlink="http://www.w3.org/1999/xlink" x="0px" y="0px"
	 viewBox="0 0 201 150" style="enable-background:new 0 0 201 150;" xml:space="preserve">
<style type="text/css">
	.st0{fill:#666666;}
</style>
<path class="st0" d="M14.9,131.9c-5.8-6.4-8.7-14-8.7-22.9c0-7.7,2.2-14.5,6.6-20.5c4.4-6,9.9-9.7,16.7-11.3
	c-0.2-1.3-0.3-3.4-0.3-6.2c0-17,5.6-31.6,16.7-43.5c11.1-12,24.5-18,40.1-18c11.3,0,21.6,3.3,30.9,9.9c9.3,6.6,16.2,15.3,20.7,26.2
	c4.5-1.6,9.1-2.3,13.9-2.3c12.3,0,22.9,4.8,31.6,14.5c8.7,9.6,13.1,21.1,13.1,34.5c0,13.6-4.4,25.2-13.1,34.8
	c-8.7,9.6-19.3,14.4-31.6,14.4H35.8C27.7,141.4,20.7,138.2,14.9,131.9z"/>
</svg>
