<?xml version="1.0" encoding="utf-8"?>
<!-- Generator: Adobe Illustrator 22.1.0, SVG Export Plug-In . SVG Version: 6.00 Build 0)  -->
<svg version="1.1" id="Layer_1" xmlns="http://www.w3.org/2000/svg" xmlns:xlink="http://www.w3.org/1999/xlink" x="0px" y="0px"
	 viewBox="0 0 225 207" style="enable-background:new 0 0 225 207;" xml:space="preserve">
<style type="text/css">
	.st0{fill:#FFFFFF;}
</style>
<g>
	<path class="st0" d="M113.9,16.5c0,0-58.8,50.7-91.6,78.2c-1.9,1.7-3.4,4.3-3.4,7.3c0,5.2,4.3,9.5,9.5,9.5h19V178
		c0,5.2,4.2,9.5,9.5,9.5h28.5c5.3,0,9.5-4.3,9.5-9.5v-38h38v38c0,5.2,4.2,9.5,9.5,9.5h28.5c5.2,0,9.5-4.2,9.5-9.5v-66.5h19
		c5.2,0,9.5-4.2,9.5-9.5c0-3-1.5-5.5-3.6-7.3C172.6,67.2,113.9,16.5,113.9,16.5z"/>
</g>
</svg>
