<?xml version="1.0" encoding="utf-8"?>
<!-- Generator: Adobe Illustrator 22.1.0, SVG Export Plug-In . SVG Version: 6.00 Build 0)  -->
<svg version="1.1" id="Layer_1" xmlns="http://www.w3.org/2000/svg" xmlns:xlink="http://www.w3.org/1999/xlink" x="0px" y="0px"
	 viewBox="0 0 201 254" style="enable-background:new 0 0 201 254;" xml:space="preserve">
<style type="text/css">
	.st0{fill:#666666;}
</style>
<g>
	<path class="st0" d="M183.3,111.2c0.9-5.1,1.4-10.3,1.4-15.6c0-48.3-37.8-87.6-84.2-87.6c-46.4,0-84.2,39.3-84.2,87.6
		c0,5.3,0.5,10.5,1.4,15.6c-7.3,4.7-12.2,13-12.2,22.4v86.1c0,14.5,11.7,26.2,26.2,26.2h137.5c14.5,0,26.3-11.9,26.3-26.6h0v-85.8
		C195.5,124.2,190.6,115.9,183.3,111.2z M111.7,186.4l0,17.3c0,5.9-4.3,11.3-10.2,11.8c-6.7,0.6-12.2-4.7-12.2-11.2v-17.9
		c-7.3-4-12.2-11.8-12.1-20.8c0.2-12.2,10.2-22.5,22.4-23c13.3-0.5,24.3,10.1,24.3,23.3C123.8,174.8,118.9,182.5,111.7,186.4z
		 M152.2,109.1h-104c-0.7-3.6-1.1-7.4-1.1-11.2c0-30.7,23.8-55.6,53.1-55.6c29.3,0,53.1,24.9,53.1,55.6
		C153.3,101.7,152.9,105.4,152.2,109.1z"/>
</g>
</svg>
