<?xml version="1.0" encoding="utf-8"?>
<!-- Generator: Adobe Illustrator 22.1.0, SVG Export Plug-In . SVG Version: 6.00 Build 0)  -->
<svg version="1.1" id="Layer_1" xmlns="http://www.w3.org/2000/svg" xmlns:xlink="http://www.w3.org/1999/xlink" x="0px" y="0px"
	 viewBox="0 0 225 297" style="enable-background:new 0 0 225 297;" xml:space="preserve">
<style type="text/css">
	.st0{fill:none;stroke:#666666;stroke-width:15.8333;stroke-miterlimit:10;}
</style>
<g>
	<path class="st0" d="M208.3,202c0,2.4-0.4,5.6-1.3,9.5s-1.8,7-2.8,9.2c-1.9,4.5-7.4,9.3-16.5,14.3c-8.5,4.6-16.8,6.9-25.1,6.9
		c-2.4,0-4.8-0.2-7.1-0.5c-2.3-0.3-4.9-0.9-7.7-1.7c-2.9-0.8-5-1.5-6.4-2c-1.4-0.5-3.9-1.4-7.5-2.8c-3.6-1.4-5.8-2.2-6.6-2.4
		c-8.8-3.2-16.7-6.9-23.6-11.2c-11.5-7.1-23.4-16.8-35.7-29.1c-12.3-12.3-22-24.2-29.1-35.7c-4.3-6.9-8.1-14.8-11.2-23.6
		c-0.3-0.8-1.1-3-2.4-6.6c-1.4-3.6-2.3-6.1-2.8-7.5c-0.5-1.4-1.2-3.5-2-6.4c-0.8-2.9-1.4-5.5-1.7-7.8c-0.3-2.3-0.5-4.7-0.5-7.1
		c0-8.3,2.3-16.7,6.9-25.1c5-9.1,9.8-14.6,14.3-16.5c2.2-1,5.3-1.9,9.2-2.8c3.9-0.9,7.1-1.4,9.5-1.4c1.3,0,2.2,0.1,2.9,0.4
		c1.6,0.5,4,4,7.1,10.3c1,1.7,2.3,4.1,4.1,7.3c1.7,3.1,3.3,6,4.7,8.6c1.5,2.6,2.8,5,4.2,7.2c0.2,0.4,1.1,1.5,2.3,3.4
		c1.3,1.9,2.3,3.5,2.9,4.8c0.6,1.3,0.9,2.6,0.9,3.8c0,1.8-1.3,4-3.8,6.7c-2.6,2.7-5.3,5.2-8.3,7.4c-3,2.2-5.8,4.6-8.4,7.1
		c-2.6,2.5-3.9,4.6-3.9,6.2c0,0.8,0.2,1.8,0.7,3c0.5,1.2,0.8,2.1,1.2,2.8c0.3,0.6,0.9,1.7,1.9,3.2c0.9,1.5,1.5,2.4,1.6,2.6
		c6.8,12.3,14.7,22.9,23.5,31.7c8.8,8.8,19.4,16.6,31.7,23.5c0.2,0.1,1,0.6,2.5,1.6c1.5,0.9,2.6,1.6,3.2,1.9
		c0.6,0.3,1.6,0.7,2.8,1.2c1.2,0.5,2.2,0.7,3,0.7c1.6,0,3.7-1.3,6.2-3.8c2.5-2.6,4.9-5.4,7.1-8.4c2.2-3,4.7-5.8,7.4-8.4
		c2.7-2.6,4.9-3.9,6.7-3.9c1.3,0,2.5,0.3,3.8,0.9c1.3,0.6,2.9,1.6,4.8,2.9c1.9,1.3,3,2.1,3.4,2.4c2.2,1.4,4.6,2.7,7.2,4.2
		c2.6,1.4,5.4,3,8.6,4.7c3.2,1.7,5.6,3.1,7.3,4.1c6.3,3.1,9.7,5.5,10.2,7.1C208.2,199.8,208.3,200.7,208.3,202z"/>
</g>
</svg>
