<?xml version="1.0" encoding="utf-8"?>
<!-- Generator: Adobe Illustrator 22.1.0, SVG Export Plug-In . SVG Version: 6.00 Build 0)  -->
<svg version="1.1" id="Layer_1" xmlns="http://www.w3.org/2000/svg" xmlns:xlink="http://www.w3.org/1999/xlink" x="0px" y="0px"
	 viewBox="0 0 225 207" style="enable-background:new 0 0 225 207;" xml:space="preserve">
<style type="text/css">
	.st0{fill:#70B361;}
</style>
<path class="st0" d="M160.3,125.4l47.6,47.6c0.7,0.8,1.1,1.8,1.1,2.9c0,1.1-0.4,2-1.1,2.9l-17.3,17.3c-0.8,0.7-1.8,1.1-2.8,1.1
	c-1,0-2-0.4-2.8-1.1l-47.6-47.6c-12.6,8.3-26.4,12.4-41.4,12.4c-21.2,0-39.3-7.5-54.3-22.5C26.5,123.3,19,105.2,19,84
	c0-21.2,7.5-39.3,22.5-54.3c15-15,33.1-22.5,54.3-22.5c21.2,0,39.3,7.5,54.3,22.5c15,15,22.5,33.1,22.5,54.3
	C172.7,99,168.5,112.9,160.3,125.4z M58.7,47C48.4,57.3,43.3,69.6,43.3,84c0,14.4,5.1,26.7,15.4,37c10.3,10.3,22.7,15.4,37.1,15.4
	c14.5,0,26.8-5.1,37.1-15.3c10.2-10.2,15.3-22.6,15.3-37.1c0-14.5-5.1-26.9-15.3-37.1c-10.2-10.2-22.6-15.3-37.1-15.3
	C81.3,31.6,69,36.8,58.7,47z"/>
</svg>
