<?xml version="1.0" encoding="utf-8"?>
<!-- Generator: Adobe Illustrator 22.1.0, SVG Export Plug-In . SVG Version: 6.00 Build 0)  -->
<svg version="1.1" id="Layer_1" xmlns="http://www.w3.org/2000/svg" xmlns:xlink="http://www.w3.org/1999/xlink" x="0px" y="0px"
	 viewBox="0 0 225 207" style="enable-background:new 0 0 225 207;" xml:space="preserve">
<style type="text/css">
	.st0{fill:#FFFFFF;}
</style>
<g>
	<g>
		<path class="st0" d="M198.8,190.7h-10.3v-88.9h9.4c2.3,0,4.1-1.8,4.1-4.1c0-2.3-1.8-4.1-4.1-4.1h-9.4V43.7c0-2.3-1.8-4.1-4.1-4.1
			h-68.1v-5.8h34.3c2.3,0,4.1-1.8,4.1-4.1V12.2c0-2.3-1.8-4.1-4.1-4.1h-38.4c-2.3,0-4.1,1.8-4.1,4.1v17.5v9.9H40
			c-2.3,0-4.1,1.8-4.1,4.1v49.9h-9.7c-2.3,0-4.1,1.8-4.1,4.1c0,2.3,1.8,4.1,4.1,4.1h11.3v81.6c0,2.3,1.8,4.1,4.1,4.1
			c2.3,0,4.1-1.8,4.1-4.1v-81.6h13.4v88.9H45.7v-17.9c0-2.3-1.8-4.1-4.1-4.1c-2.3,0-4.1,1.8-4.1,4.1v17.9H27.2
			c-2.3,0-4.1,1.8-4.1,4.1c0,2.3,1.8,4.1,4.1,4.1h14.4h21.6h28.4h42.8h28.4h21.6h14.4c2.3,0,4.1-1.8,4.1-4.1
			C202.9,192.5,201,190.7,198.8,190.7z M116.3,16.3h30.2v9.3h-30.2V16.3z M44.1,93.6V47.8h136.2v45.8h-17.5H63.2L44.1,93.6
			L44.1,93.6z M67.3,101.8h91.3v88.9h-20.2v-57.4c0-14-11.4-25.5-25.5-25.5c-14,0-25.5,11.4-25.5,25.5v57.4H67.3V101.8L67.3,101.8z
			 M130.3,133.3v2.6h-13.2v-19.4C124.6,118.3,130.3,125.1,130.3,133.3z M108.9,135.9H95.7v-2.6c0-8.1,5.6-14.9,13.2-16.8V135.9z
			 M95.7,144.1h13.2v18.5H95.7V144.1z M117.1,144.1h13.2v18.5h-13.2V144.1z M95.7,170.8h13.2v19.9H95.7V170.8z M117.1,190.7v-19.9
			h13.2v19.9H117.1z M166.8,190.7v-88.9h13.4v88.9H166.8z"/>
		<path class="st0" d="M86.6,79.3V62c0-2.3-1.8-4.1-4.1-4.1h-26c-2.3,0-4.1,1.8-4.1,4.1v17.3c0,2.3,1.8,4.1,4.1,4.1h26
			C84.7,83.4,86.6,81.6,86.6,79.3z M78.4,75.3H60.6v-9.1h17.8V75.3z"/>
		<path class="st0" d="M99.2,83.4h26c2.3,0,4.1-1.8,4.1-4.1V62c0-2.3-1.8-4.1-4.1-4.1h-26c-2.3,0-4.1,1.8-4.1,4.1v17.3
			C95.1,81.6,96.9,83.4,99.2,83.4z M103.3,66.1h17.8v9.1h-17.8V66.1z"/>
		<path class="st0" d="M141.9,83.4h26c2.3,0,4.1-1.8,4.1-4.1V62c0-2.3-1.8-4.1-4.1-4.1h-26c-2.3,0-4.1,1.8-4.1,4.1v17.3
			C137.8,81.6,139.6,83.4,141.9,83.4z M146,66.1h17.8v9.1H146V66.1z"/>
	</g>
</g>
</svg>
