<?xml version="1.0" encoding="utf-8"?>
<!-- Generator: Adobe Illustrator 22.1.0, SVG Export Plug-In . SVG Version: 6.00 Build 0)  -->
<svg version="1.1" id="Layer_1" xmlns="http://www.w3.org/2000/svg" xmlns:xlink="http://www.w3.org/1999/xlink" x="0px" y="0px"
	 viewBox="0 0 201 254" style="enable-background:new 0 0 201 254;" xml:space="preserve">
<style type="text/css">
	.st0{fill:#666666;}
</style>
<path class="st0" d="M100.6,32c12.8,0,25.1,2.5,36.8,7.5c11.7,5,21.8,11.8,30.3,20.3c8.5,8.5,15.2,18.6,20.3,30.3
	c5,11.7,7.5,24,7.5,37c0,17.2-4.2,33.1-12.7,47.6c-8.5,14.6-20,26.1-34.6,34.6c-14.6,8.5-30.5,12.7-47.6,12.7
	c-17.2,0-33.1-4.2-47.7-12.7c-14.6-8.5-26.2-20-34.7-34.6c-8.5-14.6-12.7-30.4-12.7-47.6c0-12.9,2.5-25.2,7.5-37
	c5-11.7,11.8-21.8,20.3-30.3c8.5-8.5,18.6-15.2,30.3-20.3C75.3,34.5,87.6,32,100.6,32z M104.4,46.9c-1.6,1.3-3.5,2.4-5.8,3.3
	c-2.3,1-4.1,1.6-5.5,1.9c-1.4,0.3-3.7,0.7-7,1.3c-3.3,0.5-5.4,0.8-6.2,1c-1.6,0.3-4,0.3-7.2-0.1c-3.2-0.4-5.6-0.2-7.2,0.4
	c-2.2,0.7-5,2.1-8.3,4.2c-3.3,2.1-5.1,3.9-5.4,5.5c-0.3,1.2,0,2.4,1,3.6c1,1.2,1.5,2.2,1.3,2.9c-0.3,3.6-1.8,8.4-4.4,14.4
	c-2.6,6-4.2,10.2-4.7,12.6c-0.8,3.5-0.6,8.4,0.9,14.7c1.4,6.3,1.8,10.9,1.2,13.9c0,0.9,0.9,3.3,2.7,7c1.8,3.7,2.6,6.9,2.5,9.5
	c1.3,0,2.5,0.3,3.7,0.9c1.2,0.6,2.4,1.4,3.7,2.4c1.3,1,2.3,1.7,3.2,2.1c2.6,1.3,8.3,3.5,17.2,6.7c2.3,0.8,5.1,2.5,8.4,5
	c3.3,2.5,6.4,4.5,9.4,6.1c3,1.6,6.1,2.2,9.2,1.7c0.8,1.9,0,4.8-2.4,8.7c-2.4,3.9-3.5,6.9-3.2,9.1c4.5,7.5,9.1,11.8,13.8,12.7
	c0,0.6-0.2,1.5-0.5,2.5c-0.3,1-0.5,1.8-0.6,2.3c-0.1,0.5,0.2,1.4,0.7,2.7c10.8,0.2,22.5-5.7,35.1-17.8c3.2-3.1,5.7-5.6,7.5-7.5
	c1.8-1.9,3.6-4.5,5.5-7.8c1.9-3.3,2.9-6.6,3.3-9.9c-1.5-1-3.4-1.5-5.9-1.5c-2.4-0.1-4.3-0.5-5.7-1.2c-1.5-0.7-4.1-1.5-7.8-2.4
	c-3.7-0.8-6.5-1.9-8.3-3c-1,0-3,0-6.3,0.1c-3.2,0.1-5.7,0.1-7.4,0.2c-1.7,0.1-3.8,0.5-6.2,1c-2.4,0.6-4.5,1.5-6.2,2.6
	c-5.3,3.7-8.8,4.4-10.5,1.9c-0.4-0.2-0.6-1.6-0.6-4.1c0-2.5,0.1-3.8,0.1-4.1c-0.6-1.4-2-2.3-4.2-2.7c-2.2-0.4-3.5-0.8-3.9-1.1
	c0.2-2.3,0.1-4.5-0.3-6.5c-0.4-2-1.3-3.5-2.6-4.4c-1.3-1-3.4,0.1-6.1,3.2c-2.4,2.7-4.7,2.4-6.7-0.6c-2-3-2.4-6-1.3-9.2
	c0.6-1.7,1.8-2.9,3.5-3.5c0.6,0.1,2,0.2,4.1,0.2c2.1,0.1,3.9,0.3,5.3,0.6c1.4,0.4,2.5,1.1,3.1,2.1c1.3,2,3,4,5.1,6
	c2.1,2,3.9,3.4,5.4,4.4l2.2,1.3c0-0.3,0.5-2.4,1.5-6.3c1-3.9,1.3-6.9,0.9-9.2c-0.4-2.4,0.3-4.8,2.3-7.1c2-2.3,3.1-3.9,3.6-5
	c0.5-1.5,1.1-3.3,1.6-5.6c0.5-2.2,1-3.9,1.4-4.9s1.2-2.3,2.5-3.6c1.3-1.3,3.1-2.5,5.4-3.4c-0.6-1.9-0.1-3.9,1.6-5.9
	c0.8,0,2.1,0.1,3.7,0.2c1.6,0.2,2.9,0.2,3.9,0.2c1,0,2-0.2,3.3-0.7c1.2-0.5,2.3-1.3,3.3-2.5c-1.1-2.4-2.7-4.7-4.9-6.8
	c-2.2-2.1-4.2-3.7-6-4.8c-1.8-1.1-4.4-2.5-7.8-4.2c-3.3-1.7-5.7-2.9-6.9-3.7c1.2-4.3,1.2-6.7,0.2-7c3.3,1.4,6.4,2.1,9.3,2.3
	c2.9,0.2,5,0,6.3-0.6l1.8-0.6c0.6-3.8-0.3-6.7-2.7-8.5c-2.4-1.8-5.8-3.4-10.2-4.5c-4.3-1.2-7.3-2.4-8.9-3.7
	C108.3,47.3,106.3,47.3,104.4,46.9z M102.2,64c0,1.9,0.4,4.2,1.3,6.8c0.9,2.6,1.7,4.9,2.6,7c0.9,2.1,1.4,3.3,1.5,3.7
	c-1-0.2-2.6-0.5-4.9-0.8c-2.3-0.3-4.2-0.6-5.7-0.8c-1.5-0.2-3.2-0.6-5.1-1.3c-1.9-0.6-3.5-1.4-4.8-2.2c0.3-1.3,1.2-2.9,2.6-4.8
	c1.4-1.9,2.2-3.2,2.5-4c1.1,1.1,2,1.6,2.9,1.6c0.9,0,1.6-0.3,2.2-0.9c0.6-0.6,1.4-1.4,2.3-2.3C100.6,65,101.4,64.4,102.2,64z"/>
</svg>
