<?xml version="1.0" encoding="utf-8"?>
<!-- Generator: Adobe Illustrator 22.1.0, SVG Export Plug-In . SVG Version: 6.00 Build 0)  -->
<svg version="1.1" id="Layer_1" xmlns="http://www.w3.org/2000/svg" xmlns:xlink="http://www.w3.org/1999/xlink" x="0px" y="0px"
	 viewBox="0 0 225 207" style="enable-background:new 0 0 225 207;" xml:space="preserve">
<style type="text/css">
	.st0{fill:#666666;}
</style>
<g>
	<g>
		<path class="st0" d="M112.5,54.1c-26.8,0-49,21.8-49,49c0,27.2,21.8,49,49,49c27.2,0,49-22.2,49-49S139.3,54.1,112.5,54.1z
			 M112.5,134.5c-17.2,0-31.4-14.2-31.4-31.4c0-17.2,14.2-31.4,31.4-31.4c17.3,0,31.4,14.2,31.4,31.4
			C143.9,120.4,129.8,134.5,112.5,134.5z"/>
		<path class="st0" d="M163.5,41.8c6.1,0,11.1,5,11.1,11.1c0,6.1-5,11.1-11.1,11.1c-6.1,0-11.1-5-11.1-11.1
			C152.3,46.8,157.3,41.8,163.5,41.8z"/>
		<path class="st0" d="M192.2,24.2c-10-10.3-24.1-15.7-40.2-15.7H73.1C39.7,8.5,17.5,30.7,17.5,64v78.5c0,16.5,5.4,30.6,16.1,41
			c10.4,10,24.1,14.9,39.9,14.9h78.1c16.5,0,30.2-5.4,40.2-14.9c10.3-10,15.7-24.1,15.7-40.6V64C207.5,48,202.1,34.2,192.2,24.2z
			 M190.6,143c0,11.9-4.2,21.4-11.1,28c-6.9,6.5-16.5,10-28,10H73.4c-11.5,0-21.1-3.5-28-10c-6.9-6.9-10.3-16.5-10.3-28.3V64
			c0-11.5,3.5-21.1,10.3-28c6.5-6.5,16.5-10,28-10h78.9c11.5,0,21.1,3.5,28,10.3c6.5,6.9,10.3,16.5,10.3,27.6V143L190.6,143z"/>
	</g>
</g>
</svg>
