<?xml version="1.0" encoding="utf-8"?>
<!-- Generator: Adobe Illustrator 22.1.0, SVG Export Plug-In . SVG Version: 6.00 Build 0)  -->
<svg version="1.1" id="Layer_1" xmlns="http://www.w3.org/2000/svg" xmlns:xlink="http://www.w3.org/1999/xlink" x="0px" y="0px"
	 viewBox="0 0 225 169" style="enable-background:new 0 0 225 169;" xml:space="preserve">
<style type="text/css">
	.st0{fill:#666666;}
</style>
<g>
	<path class="st0" d="M207.5,25.6c-7,3.1-14.5,5.2-22.4,6.1c8.1-4.8,14.2-12.5,17.2-21.6c-7.5,4.5-15.9,7.7-24.8,9.5
		C170.4,12,160.3,7.3,149,7.3c-21.5,0-39,17.4-39,39c0,3.1,0.4,6,1,8.9C78.7,53.5,50,38,30.7,14.4c-3.4,5.7-5.3,12.4-5.3,19.6
		c0,13.5,6.9,25.4,17.3,32.4c-6.4-0.2-12.4-2-17.6-4.9c0,0.2,0,0.3,0,0.5c0,18.9,13.4,34.6,31.3,38.2c-3.3,0.9-6.7,1.4-10.3,1.4
		c-2.5,0-4.9-0.2-7.3-0.7c5,15.5,19.3,26.8,36.4,27.1c-13.3,10.4-30.2,16.7-48.4,16.7c-3.2,0-6.2-0.2-9.3-0.5
		c17.2,11.1,37.8,17.5,59.8,17.5c71.7,0,110.9-59.4,110.9-110.9c0-1.7,0-3.4-0.1-5.1C195.7,40.3,202.3,33.4,207.5,25.6z"/>
</g>
</svg>
