<?xml version="1.0" encoding="utf-8"?>
<!-- Generator: Adobe Illustrator 22.1.0, SVG Export Plug-In . SVG Version: 6.00 Build 0)  -->
<svg version="1.1" id="Layer_1" xmlns="http://www.w3.org/2000/svg" xmlns:xlink="http://www.w3.org/1999/xlink" x="0px" y="0px"
	 viewBox="0 0 225 207" style="enable-background:new 0 0 225 207;" xml:space="preserve">
<style type="text/css">
	.st0{fill:#666666;}
</style>
<g>
	<g>
		<path class="st0" d="M115.3,169.3c-21.4-0.7-41.7-1.2-62-2c-4.4-0.2-8.8-0.9-13.1-1.9c-8-1.9-13.6-6.7-16.4-14.6
			c-2.3-6.4-3.1-12.9-3.7-19.6c-1.3-15.6-1.3-31.2-0.7-46.9c0.4-8.8,0.6-17.7,3-26.3c1.4-5.1,3.1-10.1,7.3-13.8
			c4.4-3.9,9.5-6.3,15.3-6.5c16-0.8,32-1.8,48-1.9c21.5-0.2,43.1,0.1,64.7,0.5c9.3,0.2,18.7,0.7,27.9,1.9
			c8.4,1.1,14.8,5.8,18.1,14.1c2.6,6.3,3.6,12.9,4.1,19.7c1.5,16.9,1.5,33.7,0.7,50.6c-0.4,8.6-0.8,17.2-3.3,25.5
			c-2.8,9.6-8.6,15.9-18.4,18.1c-3.8,0.8-7.8,1.1-11.7,1.3C154.9,168,134.6,168.7,115.3,169.3z M94.6,126.8
			c17.1-8.8,33.9-17.6,51.1-26.5c-17.2-9-34-17.8-51.1-26.7C94.6,91.4,94.6,108.9,94.6,126.8z"/>
	</g>
</g>
</svg>
