<?xml version="1.0" encoding="utf-8"?>
<!-- Generator: Adobe Illustrator 16.0.0, SVG Export Plug-In . SVG Version: 6.00 Build 0)  -->
<!DOCTYPE svg PUBLIC "-//W3C//DTD SVG 1.1//EN" "http://www.w3.org/Graphics/SVG/1.1/DTD/svg11.dtd">
<svg version="1.1" id="Capa_1" xmlns="http://www.w3.org/2000/svg" xmlns:xlink="http://www.w3.org/1999/xlink" x="0px" y="0px"
	 width="432px" height="46px" viewBox="0 0 432 46" enable-background="new 0 0 432 46" xml:space="preserve">
<g>
	<g>
		<path fill="#1B5E97" d="M65.528,34.85c-1.995,0-3.436-0.484-4.321-1.457c-0.885-0.973-1.328-2.535-1.328-4.686V18.086h3.697
			v10.621c0,1.109,0.069,1.991,0.209,2.642c0.138,0.651,0.762,0.976,1.873,0.976c0.938,0,1.515-0.26,1.731-0.78
			c0.217-0.521,0.325-1.476,0.325-2.864V18.086h3.698v10.621c0.017,2.169-0.434,3.735-1.354,4.698
			C69.138,34.369,67.628,34.85,65.528,34.85 M82.162,34.564l-5.024-10.674v10.674h-2.993V18.086h3.775l4.711,10.309V18.086h2.968
			v16.479H82.162z M88.488,18.086h3.669v16.479h-3.669V18.086z M101.581,34.564h-3.539l-4.296-16.479h3.957l2.344,12.6l2.628-12.6
			h3.437L101.581,34.564z M107.698,34.564V18.086h8.695v2.524h-4.998v4.19h4.556v2.526h-4.556v4.712h4.998v2.525H107.698z
			 M126.925,35.158l-2.056-5.879c-0.277-0.781-0.528-1.297-0.754-1.549c-0.225-0.252-0.59-0.377-1.095-0.377h-0.364v7.211h-3.696
			V18.086h5.336c1.735,0,3.007,0.396,3.813,1.185c0.808,0.789,1.211,1.801,1.211,3.033c0,1.109-0.333,1.991-1.002,2.642
			c-0.667,0.65-1.488,1.054-2.46,1.21c1.215,0.261,2.083,1.077,2.604,2.447l1.822,4.837L126.925,35.158z M123.568,20.61h-0.912
			v4.269l1.042-0.025c0.555,0,1.002-0.195,1.341-0.586c0.338-0.39,0.507-0.923,0.507-1.601c-0.018-0.659-0.209-1.167-0.572-1.522
			C124.609,20.789,124.142,20.61,123.568,20.61 M135.282,34.85c-0.659,0-1.332-0.074-2.017-0.223
			c-0.685-0.146-1.315-0.34-1.887-0.584v-2.968c0.38,0.329,0.89,0.62,1.522,0.872c0.633,0.252,1.297,0.377,1.991,0.377
			c0.763,0,1.349-0.168,1.757-0.506c0.408-0.339,0.612-0.863,0.612-1.577c0-0.901-0.495-1.669-1.484-2.303
			c-0.99-0.633-1.961-1.253-2.916-1.86c-1.041-0.902-1.562-2.091-1.562-3.566c0-1.614,0.503-2.803,1.509-3.567
			c1.007-0.763,2.308-1.145,3.906-1.145c0.918,0,1.678,0.086,2.277,0.264c0.598,0.175,1.123,0.361,1.575,0.552l-1.275,2.464
			c-0.209-0.173-0.481-0.343-0.82-0.507c-0.339-0.165-0.795-0.247-1.367-0.247c-0.468,0-0.894,0.152-1.276,0.456
			c-0.382,0.303-0.572,0.771-0.572,1.413c0,0.765,0.495,1.484,1.484,2.158c0.988,0.676,1.969,1.336,2.942,1.977
			c1.041,0.934,1.562,2.062,1.562,3.376c0,1.783-0.569,3.089-1.706,3.913C138.401,34.439,136.983,34.85,135.282,34.85
			 M143.507,18.086h3.67v16.479h-3.67V18.086z M154.05,34.564h-4.061V18.086l4.451-0.051c2.863,0,4.88,0.699,6.052,2.099
			c1.171,1.397,1.757,3.349,1.757,5.853c0,2.989-0.673,5.168-2.019,6.529C158.888,33.883,156.827,34.564,154.05,34.564
			 M154.623,20.61h-0.963v11.429h0.651c1.493,0,2.521-0.475,3.085-1.42s0.846-2.502,0.846-4.672c0-1.892-0.282-3.254-0.846-4.087
			S155.906,20.61,154.623,20.61 M171.708,34.564l-1.042-4.063h-3.931l-1.093,4.063h-3.305l4.919-16.479h3.514l4.764,16.479H171.708z
			 M168.741,22.402l-1.367,5.571l2.642,0.005L168.741,22.402z M181.184,34.564h-4.06V18.086l4.451-0.051
			c2.864,0,4.881,0.699,6.052,2.099c1.172,1.397,1.758,3.349,1.758,5.853c0,2.989-0.673,5.168-2.018,6.529
			C186.021,33.883,183.96,34.564,181.184,34.564 M181.756,20.61h-0.963v11.429h0.651c1.493,0,2.521-0.475,3.085-1.42
			c0.563-0.945,0.846-2.502,0.846-4.672c0-1.892-0.283-3.254-0.846-4.087C183.965,21.027,183.041,20.61,181.756,20.61
			 M200.447,34.564h-4.062V18.086l4.451-0.051c2.864,0,4.882,0.699,6.052,2.099c1.171,1.397,1.757,3.349,1.757,5.853
			c0,2.989-0.672,5.168-2.017,6.529C205.284,33.883,203.223,34.564,200.447,34.564 M201.02,20.61h-0.963v11.429h0.65
			c1.493,0,2.521-0.475,3.085-1.42c0.564-0.945,0.845-2.502,0.845-4.672c0-1.892-0.281-3.254-0.845-4.087
			C203.227,21.027,202.304,20.61,201.02,20.61 M210.858,34.564V18.086h8.694v2.524h-4.999v4.19h4.557v2.526h-4.557v4.712h4.999
			v2.525H210.858z M226.01,34.564V18.086h3.695v13.953h4.27v2.525H226.01z M244.611,34.564l-1.041-4.063h-3.93l-1.094,4.063h-3.307
			l4.92-16.479h3.515l4.764,16.479H244.611z M241.645,22.402l-1.367,5.571l2.642,0.005L241.645,22.402z M263.077,21.001
			c-0.121-0.086-0.347-0.226-0.677-0.416s-0.799-0.286-1.406-0.286c-1.232,0-2.159,0.542-2.785,1.627
			c-0.625,1.084-0.938,2.459-0.938,4.125c0,2.049,0.339,3.605,1.016,4.674c0.676,1.066,1.544,1.6,2.604,1.6
			c0.954,0,1.66-0.112,2.121-0.338c0.46-0.225,0.829-0.46,1.106-0.703v2.863c-0.296,0.169-0.681,0.326-1.158,0.477
			c-0.478,0.152-1.211,0.227-2.2,0.227c-2.446,0-4.299-0.759-5.557-2.272c-1.259-1.521-1.889-3.619-1.889-6.304
			c0-2.721,0.625-4.817,1.875-6.292c1.25-1.471,3.055-2.208,5.414-2.208c1.007,0,1.802,0.074,2.383,0.222
			c0.58,0.148,1.071,0.308,1.471,0.481L263.077,21.001z M271.303,34.85c-1.996,0-3.437-0.484-4.32-1.457
			c-0.885-0.973-1.329-2.535-1.329-4.686V18.086h3.698v10.621c0,1.109,0.068,1.991,0.207,2.642c0.139,0.651,0.764,0.976,1.874,0.976
			c0.937,0,1.515-0.26,1.731-0.78c0.217-0.521,0.325-1.476,0.325-2.864V18.086h3.696v10.621c0.018,2.169-0.435,3.735-1.354,4.698
			C274.912,34.369,273.402,34.85,271.303,34.85 M279.918,34.564V18.086h8.695v2.524h-4.998v4.19h4.557v2.526h-4.557v4.712h4.998
			v2.525H279.918z M298.297,34.564l-5.025-10.674v10.674h-2.992V18.086h3.773l4.713,10.309V18.086h2.967v16.479H298.297z
			 M312.83,21.001c-0.119-0.086-0.346-0.226-0.676-0.416c-0.329-0.19-0.799-0.286-1.406-0.286c-1.231,0-2.16,0.542-2.785,1.627
			c-0.623,1.084-0.936,2.459-0.936,4.125c0,2.049,0.336,3.605,1.015,4.674c0.677,1.066,1.544,1.6,2.603,1.6
			c0.955,0,1.662-0.112,2.121-0.338c0.461-0.225,0.829-0.46,1.105-0.703v2.863c-0.295,0.169-0.679,0.326-1.158,0.477
			c-0.476,0.152-1.21,0.227-2.199,0.227c-2.445,0-4.298-0.759-5.558-2.272c-1.258-1.521-1.886-3.619-1.886-6.304
			c0-2.721,0.624-4.817,1.873-6.292c1.25-1.471,3.055-2.208,5.416-2.208c1.004,0,1.799,0.074,2.381,0.222
			c0.581,0.148,1.07,0.308,1.472,0.481L312.83,21.001z M324.562,34.564l-1.042-4.063h-3.93l-1.094,4.063h-3.306l4.92-16.479h3.513
			l4.764,16.479H324.562z M321.594,22.402l-1.366,5.571l2.643,0.005L321.594,22.402z M338.827,34.564h-4.06V18.086l4.449-0.051
			c2.863,0,4.883,0.699,6.053,2.099c1.17,1.397,1.758,3.349,1.758,5.853c0,2.989-0.673,5.168-2.019,6.529
			C343.663,33.883,341.604,34.564,338.827,34.564 M339.399,20.61h-0.964v11.429h0.652c1.49,0,2.519-0.475,3.083-1.42
			s0.849-2.502,0.849-4.672c0-1.892-0.284-3.254-0.849-4.087S340.684,20.61,339.399,20.61 M349.239,34.564V18.086h8.694v2.524
			h-4.998v4.19h4.555v2.526h-4.555v4.712h4.998v2.525H349.239z M359.6,34.564V18.086h3.697v13.953h4.268v2.525H359.6z
			 M378.602,28.161h-0.963v6.403h-3.695V18.086h4.684c1.91,0,3.325,0.425,4.242,1.275c0.921,0.85,1.383,2.073,1.383,3.671
			c0,1.579-0.47,2.827-1.405,3.749C381.908,27.699,380.493,28.161,378.602,28.161 M378.454,20.61h-0.815v5.024h0.867
			c0.698,0,1.211-0.204,1.536-0.607c0.327-0.408,0.487-1.076,0.487-2.008c0-0.777-0.165-1.372-0.5-1.788
			C379.693,20.82,379.17,20.61,378.454,20.61 M386.566,34.564V18.086h3.697v13.953h4.269v2.525H386.566z M405.171,34.564
			l-1.042-4.063h-3.931l-1.093,4.063h-3.308l4.921-16.479h3.514l4.764,16.479H405.171z M402.203,22.402l-1.368,5.571l2.642,0.005
			L402.203,22.402z M415.514,20.61v13.954h-3.646V20.61h-3.408v-2.524h10.489v2.524H415.514z M427.783,34.564l-1.041-4.063h-3.932
			l-1.093,4.063h-3.305l4.919-16.479h3.514l4.764,16.479H427.783z M424.816,22.402l-1.369,5.571l2.646,0.005L424.816,22.402z"/>
	</g>
	<g>
		
			<line fill="none" stroke="#1D1D1B" stroke-width="0.121" stroke-linecap="round" stroke-linejoin="round" x1="26.585" y1="10.108" x2="26.587" y2="10.108"/>
		<path fill="#609F72" d="M38.517,7.735c-0.397-1.695-1.523-3.083-3.098-3.824c-1.711-0.806-3.706-0.824-5.55-0.583
			c-0.731,0.096-1.449,0.262-2.149,0.492c-0.577,0.19-1.14,0.419-1.714,0.618c-1.531,0.531-3.117,0.721-4.735,0.7
			c-1.558-0.021-3.051-0.277-4.514-0.809c-0.566-0.206-1.127-0.428-1.704-0.603c-0.714-0.217-1.448-0.361-2.189-0.44
			C11.109,3.104,9.269,3.166,7.561,3.63c-0.62,0.168-1.22,0.396-1.822,0.618c-0.573,0.211-1.15,0.41-1.747,0.55
			c0,0-2.222,4.942-2.182,4.997c0.834-0.05,1.665-0.169,2.473-0.387C4.922,9.237,5.54,9.002,6.16,8.772
			c1.37-0.506,2.751-0.811,4.214-0.87c1.662-0.068,3.331,0.069,4.918,0.582c0.639,0.208,1.261,0.464,1.896,0.679
			c0.866,0.293,1.757,0.49,2.667,0.583c1.739,0.177,3.562,0.114,5.255-0.347c1.327-0.36,2.567-0.97,3.918-1.248
			c1.311-0.269,3.311-0.575,3.951,0.985c0.386,0.94-0.003,1.89-0.403,2.747c-0.658,1.409-8.757,18.777-9.079,19.466
			c-0.525,1.126-0.833,2.322-0.842,3.568c-0.028,3.5,2.253,6.712,5.564,7.837c0.763,0.26,1.566,0.405,2.373,0.431
			c-1.818-1.126-3.034-3.078-3.228-5.207c-0.114-1.242,0.118-2.48,0.647-3.606c0.096-0.203,9.134-19.587,9.453-20.273
			c0.707-1.517,1.243-3.122,1.231-4.814C38.693,8.764,38.636,8.243,38.517,7.735"/>
		<path fill="#1B5E97" d="M51.772,14.409c-0.222-1.133-0.903-2.148-1.862-2.79c-0.464-0.312-0.988-0.531-1.536-0.645
			c-0.72-0.148-1.484-0.104-2.214-0.024c-0.566,0.062-1.127,0.164-1.679,0.304c-1.238,0.315-2.438,0.67-3.719,0.745
			c-0.157,0.009-0.635,0.024-0.781,0.028c-0.214,0.708-0.494,1.397-0.808,2.071c-0.32,0.686-0.64,1.371-0.959,2.057
			c-0.07,0.15-0.141,0.301-0.211,0.453c1.082,0.108,2.182,0.116,3.259-0.037c1.035-0.146,2.024-0.471,3.039-0.714
			c0.173-0.041,0.346-0.074,0.521-0.108c0.233-0.043,0.491-0.09,0.717,0.017c0.373,0.174,0.311,0.611,0.17,0.924
			c-0.229,0.511-8.604,18.449-8.842,18.962c-0.226,0.482-0.453,0.961-0.751,1.405c-1.172,1.743-3.073,3.145-5.131,3.619
			c-0.448,0.104-0.934,0.181-1.394,0.147c1.664,1.891,4.286,2.748,6.745,2.21c1.202-0.263,2.324-0.85,3.228-1.683
			c0.434-0.398,0.816-0.852,1.136-1.346c0.153-0.236,0.285-0.486,0.404-0.742c0.237-0.512,10.055-21.56,10.272-22.025
			C51.793,16.346,51.964,15.385,51.772,14.409"/>
		<path fill="#1B5E97" d="M28.895,16.212c0.583-0.127,1.18-0.21,1.783-0.259c0.982-2.104,1.718-3.684,1.898-4.069
			c0.094-0.202,0.188-0.41,0.271-0.622c-0.595-0.032-1.194-0.033-1.792-0.006c-1.307,0.058-2.596,0.322-3.825,0.767
			c-1.192,0.433-2.355,0.859-3.62,1.026c-1.706,0.226-3.514,0.195-5.195-0.186c-1.144-0.258-2.207-0.748-3.324-1.091
			c-1.582-0.486-3.253-0.598-4.899-0.512c-1.392,0.073-2.71,0.376-4.014,0.858c-0.666,0.246-1.329,0.497-2.019,0.672
			c-0.443,0.114-1.672,0.306-1.672,0.306l-2.217,4.755c1.56,0.038,3.116-0.106,4.606-0.586c1.107-0.358,2.167-0.832,3.311-1.072
			c1.664-0.35,3.444-0.37,5.125-0.135c1.257,0.176,2.414,0.611,3.601,1.041c1.174,0.424,2.405,0.672,3.651,0.734
			c1.698,0.084,3.41-0.03,5.036-0.545C26.702,16.938,27.758,16.46,28.895,16.212"/>
	</g>
</g>
</svg>
